<?xml version="1.0" encoding="UTF-8"?>
<svg xmlns="http://www.w3.org/2000/svg" xmlns:xlink="http://www.w3.org/1999/xlink" version="1.1" id="layer" x="0px" y="0px" viewBox="0 0 652 652" style="enable-background:new 0 0 652 652;" xml:space="preserve">
<style type="text/css">
	.st0{fill:#C7D400;}
	.st1{stroke:#FFFFFF;stroke-width:1.4296;stroke-miterlimit:10;}
</style>
<polygon id="XMLID_45_" class="st0" points="570.1,238.8 39.8,256.8 37.2,187 567.6,169 "></polygon>
<path id="XMLID_15_" class="st0" d="M620.3,332.6L22.6,347.1l-1.9-69.6l597.7-14.7L620.3,332.6z"></path>
<g id="XMLID_54_">
	<g>
		<path class="st1" d="M107.1,250.8H87.8l-4.1-38.3l-5,38.3H59.3l-10.2-54.3h16.6l4.3,35l4.6-35h18.6l4.4,35l4.4-35h15.2    L107.1,250.8z"></path>
		<path class="st1" d="M121.7,250.8v-54.3h34.9v12.3h-18.4v8.1h17.2v12.3h-17.2v9.4h19.3v12.3h-35.7V250.8z"></path>
		<path class="st1" d="M164.4,250.8v-54.3H181v41.6h16.7v12.7C197.7,250.8,164.4,250.8,164.4,250.8z"></path>
		<path class="st1" d="M222,209v41.6h-16.6V209h-11.2v-12.7h39V209H222z"></path>
		<path class="st1" d="M283.4,223.6c0,3.9-0.6,7.4-1.6,10.9c-1,3.4-2.6,6.4-4.6,8.9c-2,2.6-4.6,4.6-7.6,6c-3,1.4-6.6,2.1-10.6,2.1    c-4.3,0-7.9-0.7-10.9-2.3c-3-1.4-5.6-3.6-7.4-6c-2-2.6-3.4-5.6-4.3-8.9c-0.9-3.4-1.3-7-1.3-10.9c0-3.7,0.4-7.3,1.4-10.6    c1-3.4,2.4-6.4,4.4-9c2-2.6,4.6-4.6,7.6-6.1c3-1.6,6.6-2.3,10.6-2.3c4.3,0,8,0.7,11,2.3s5.6,3.6,7.6,6.1c2,2.6,3.4,5.6,4.3,8.9    C282.8,216.3,283.4,219.9,283.4,223.6z M266.2,223.6c0-1.9,0-3.7-0.1-5.7s-0.4-3.7-0.9-5.4c-0.4-1.6-1.1-3-2.1-4    c-1-1-2.3-1.6-4-1.6c-1.6,0-2.7,0.6-3.6,1.6c-0.9,1-1.6,2.4-2.1,4c-0.4,1.6-0.9,3.4-1,5.4c-0.1,2-0.3,3.9-0.3,5.7    c0,2.4,0.1,4.7,0.4,6.9c0.3,2,0.6,3.9,1.1,5.3s1.3,2.6,2.1,3.4s2,1.1,3.3,1.1c1.6,0,2.9-0.6,3.9-1.6c1-1,1.7-2.4,2.1-4    c0.4-1.6,0.7-3.4,0.9-5.4C266.1,227.3,266.2,225.3,266.2,223.6z"></path>
		<path class="st1" d="M306.2,208.6v9h16.4v12.2h-16.4v21h-16.6v-54.3h33.9v12.3h-17.3V208.6z"></path>
		<path class="st1" d="M346.1,208.6v9h16.4v12.2h-16.4v21h-16.6v-54.3h33.9v12.3h-17.3V208.6z"></path>
		<path class="st1" d="M369.6,250.8v-54.3h34.9v12.3H386v8.1h17.2v12.3H386v9.4h19.3v12.3h-35.7V250.8z"></path>
		<path class="st1" d="M435.6,250.8l-9.6-35.6v35.6h-13.9v-54.3h21l9.6,35.6v-35.7h13.9v54.3h-21V250.8z"></path>
		<path class="st1" d="M464.2,250.8v-54.3h34.9v12.3h-18.4v8.1h17.2v12.3h-17.2v9.4h19.2v12.3h-35.6V250.8z"></path>
		<path class="st1" d="M78.1,324.1v-21.3h-8.6v21.3H52.9v-54.3h16.6v20.3h8.6v-20.3h16.6v54.3H78.1z"></path>
		<path class="st1" d="M149.3,297c0,3.9-0.6,7.4-1.6,10.9c-1,3.4-2.6,6.4-4.6,8.9c-2,2.6-4.6,4.6-7.6,6c-3,1.4-6.6,2.1-10.6,2.1    c-4.3,0-7.9-0.7-10.9-2.3c-3-1.4-5.6-3.6-7.4-6c-2-2.6-3.4-5.6-4.3-8.9c-0.9-3.4-1.3-7-1.3-10.9c0-3.7,0.4-7.3,1.4-10.6    c1-3.4,2.4-6.4,4.4-9c2-2.6,4.6-4.6,7.6-6.1c3-1.6,6.6-2.3,10.6-2.3c4.3,0,8,0.7,11,2.3c3,1.6,5.6,3.6,7.6,6.1s3.4,5.6,4.3,8.9    C148.8,289.7,149.3,293.2,149.3,297z M132.3,297c0-1.9,0-3.7-0.1-5.7c-0.1-2-0.4-3.7-0.9-5.4c-0.4-1.6-1.1-3-2.1-4    c-1-1-2.3-1.6-4-1.6c-1.6,0-2.7,0.6-3.6,1.6c-0.9,1-1.6,2.4-2.1,4c-0.4,1.6-0.9,3.4-1,5.4c-0.1,2-0.3,3.9-0.3,5.7    c0,2.4,0.1,4.7,0.4,6.9c0.3,2,0.6,3.9,1.1,5.3c0.6,1.4,1.3,2.6,2.1,3.4c0.9,0.9,2,1.1,3.3,1.1c1.6,0,2.9-0.6,3.9-1.6    c1-1,1.7-2.4,2.1-4c0.4-1.6,0.7-3.4,0.9-5.4C132.1,300.7,132.3,298.8,132.3,297z"></path>
		<path class="st1" d="M193.6,323.1c-0.6,0.1-1.3,0.3-2.1,0.6c-0.9,0.3-1.9,0.4-3,0.6c-1.1,0.1-2.4,0.4-4.1,0.6    c-1.6,0.1-3.4,0.3-5.6,0.3c-3.6,0-6.9-0.6-10-1.9c-3-1.1-5.7-3-8-5.3c-2.3-2.4-4.1-5.3-5.4-8.9s-2-7.6-2-12.2    c0-5.4,0.9-9.9,2.7-13.4c1.7-3.6,3.9-6.4,6.4-8.6s5.1-3.7,8-4.6c2.7-0.9,5.1-1.3,7.3-1.3c2.4,0,4.4,0.1,6.3,0.4    c1.7,0.3,3.3,0.6,4.6,0.9c1.3,0.3,2.3,0.7,3,1s1.3,0.6,1.6,0.7l-0.4,12.9c-0.4-0.3-0.9-0.6-1.4-1c-0.6-0.4-1.3-0.7-2.1-1.1    c-0.9-0.4-1.9-0.7-3-1c-1.1-0.3-2.4-0.4-4-0.4c-1.4,0-2.9,0.3-4.1,0.9c-1.4,0.6-2.6,1.4-3.7,2.7c-1.1,1.3-2,2.9-2.7,4.9    s-1,4.4-1,7.1c0,2.7,0.3,5.1,1,7.1s1.6,3.6,2.6,4.9c1,1.3,2.3,2.1,3.6,2.7c1.4,0.6,2.7,0.9,4.3,0.9c1.9,0,3.6-0.1,4.9-0.4    c1.4-0.3,2.4-0.7,3.3-1.1s1.6-0.7,2-1.1c0.4-0.3,0.7-0.4,0.9-0.4L193.6,323.1z"></path>
		<path class="st1" d="M225,324.1v-21.3h-8.6v21.3h-16.6v-54.3h16.6v20.3h8.6v-20.3h16.6v54.3H225z"></path>
		<path class="st1" d="M285.9,307.2c0,2.6-0.6,5-1.6,7.1c-1,2.1-2.6,4-4.4,5.7c-1.9,1.6-4,2.9-6.6,3.7s-5.4,1.3-8.3,1.3    c-2.7,0-5.4-0.1-8.4-0.6c-3-0.4-5.6-0.9-7.9-1.4l0.4-12.6c2.1,0.9,4.4,1.7,6.7,2.3s4.4,0.9,6.3,0.9c2.4,0,4.1-0.4,5.1-1.4    s1.6-2.1,1.6-3.9c0-1.4-0.6-2.4-1.7-3.3c-1.1-0.7-2.3-1.3-3.7-1.9l-5-1.9c-2-0.7-3.6-1.6-4.9-2.7c-1.3-1-2.3-2.3-3.1-3.7    c-0.9-1.4-1.3-2.9-1.6-4.6c-0.3-1.7-0.4-3.4-0.4-5.1c0-2.3,0.4-4.6,1.4-6.6c1-2,2.3-3.7,4.1-5.3c1.9-1.4,4-2.7,6.7-3.6    c2.6-0.9,5.6-1.3,9-1.3c1.3,0,2.6,0,3.6,0.1c1.1,0.1,2.3,0.1,3.3,0.4c1.1,0.1,2.3,0.4,3.4,0.6c1.1,0.3,2.4,0.6,3.9,0.9l-0.4,12.4    c-1.7-0.9-3.7-1.6-6-2.1c-2.3-0.6-4.1-0.9-5.7-0.9c-2,0-3.6,0.4-4.7,1.3s-1.6,2-1.6,3.3c0,1.3,0.4,2.1,1.3,2.9    c0.9,0.7,2.1,1.3,3.7,1.9l4.4,1.4c1.6,0.6,3.1,1.1,4.6,2c1.4,0.7,2.6,1.7,3.6,3c1,1.3,1.7,2.7,2.3,4.6    C285.7,302.4,285.9,304.5,285.9,307.2z"></path>
		<path class="st1" d="M329.8,323.1c-0.6,0.1-1.3,0.3-2.1,0.6c-0.9,0.3-1.9,0.4-3,0.6c-1.1,0.1-2.4,0.4-4.1,0.6    c-1.6,0.1-3.4,0.3-5.6,0.3c-3.6,0-6.9-0.6-10-1.9c-3-1.1-5.7-3-8-5.3c-2.3-2.4-4.1-5.3-5.4-8.9c-1.3-3.6-2-7.6-2-12.2    c0-5.4,0.9-9.9,2.7-13.4c1.7-3.6,3.9-6.4,6.4-8.6s5.1-3.7,8-4.6c2.7-0.9,5.1-1.3,7.3-1.3c2.4,0,4.4,0.1,6.3,0.4    c1.7,0.3,3.3,0.6,4.6,0.9c1.3,0.3,2.3,0.7,3,1s1.3,0.6,1.6,0.7l-0.4,12.9c-0.4-0.3-0.9-0.6-1.4-1c-0.6-0.4-1.3-0.7-2.1-1.1    c-0.9-0.4-1.9-0.7-3-1c-1.1-0.3-2.4-0.4-4-0.4c-1.4,0-2.9,0.3-4.1,0.9c-1.4,0.6-2.6,1.4-3.7,2.7c-1.1,1.3-2,2.9-2.7,4.9    c-0.7,2-1,4.4-1,7.1c0,2.7,0.3,5.1,1,7.1c0.7,2,1.6,3.6,2.6,4.9c1,1.3,2.3,2.1,3.6,2.7c1.4,0.6,2.7,0.9,4.3,0.9    c1.9,0,3.6-0.1,4.9-0.4c1.4-0.3,2.4-0.7,3.3-1.1s1.6-0.7,2-1.1c0.4-0.3,0.7-0.4,0.9-0.4L329.8,323.1z"></path>
		<path class="st1" d="M361.3,324.1v-21.3h-8.6v21.3h-16.6v-54.3h16.6v20.3h8.6v-20.3h16.6v54.3H361.3z"></path>
		<path class="st1" d="M427.8,304.4c0,6.9-1.9,12-5.4,15.4c-3.7,3.6-8.9,5.3-15.4,5.3c-6.9,0-12.2-1.7-15.6-5    c-3.6-3.4-5.3-8.6-5.3-15.7v-34.6h16.6v37.7c0,1.6,0.3,2.9,0.9,4c0.6,1.1,1.7,1.6,3.4,1.6c1.6,0,2.7-0.6,3.3-1.6    c0.7-1.1,1-2.4,1-4v-37.7h16.6V304.4z"></path>
		<path class="st1" d="M435.9,324.1v-54.3h16.6v41.6h16.7v12.7H435.9z"></path>
		<path class="st1" d="M473.5,324.1v-54.3h34.9v12.3h-18.4v8.3h17.2v12.3h-17.2v9.4h19.3v12.3h-35.7V324.1z"></path>
		<path class="st1" d="M538.8,324.1l-9.6-35.6v35.6h-13.9v-54.3h21l9.6,35.6v-35.6h13.9v54.3H538.8z"></path>
		<path class="st1" d="M86.9,395.7c-2,1-4.3,1.7-6.9,2c-2.4,0.4-4.9,0.6-7,0.6c-3.7,0-7-0.7-9.7-2c-2.7-1.3-5-3.1-6.7-5.3    c-1.7-2.3-3.1-5-4-8c-0.9-3-1.3-6.4-1.3-10s0.6-6.9,1.6-9.9c1-3,2.6-5.7,4.6-8s4.4-4,7.3-5.4c2.9-1.3,6.1-2,9.9-2    c2.3,0,4.4,0.1,6.3,0.6c1.9,0.4,3.6,1,5.1,1.6l-0.4,7.7c-1.4-0.9-3-1.6-4.7-2.1c-1.7-0.6-3.6-0.9-5.7-0.9c-2.4,0-4.6,0.6-6.4,1.6    c-1.9,1-3.3,2.4-4.4,4.1c-1.1,1.7-2,3.7-2.6,5.9c-0.6,2.1-0.9,4.4-0.9,6.7c0,2.3,0.3,4.4,0.7,6.6c0.4,2.1,1.3,4.1,2.3,5.9    c1.1,1.7,2.4,3.1,4.1,4.1c1.7,1,3.9,1.6,6.3,1.6c1.7,0,3.3-0.3,4.6-1v-13.4h-6.7V370h15v25.7H86.9z"></path>
		<path class="st1" d="M99.5,397.6v-48.9H125v7h-16.6v13.2h15.4v7h-15.4v14.7h17.3v7L99.5,397.6L99.5,397.6z"></path>
		<path class="st1" d="M170.9,395.7c-2,1-4.3,1.7-6.9,2c-2.4,0.4-4.9,0.6-7,0.6c-3.7,0-7-0.7-9.7-2c-2.7-1.3-5-3.1-6.7-5.3    c-1.7-2.3-3.1-5-4-8c-0.9-3-1.3-6.4-1.3-10s0.6-6.9,1.6-9.9c1-3,2.6-5.7,4.6-8c2-2.3,4.4-4,7.3-5.4c2.9-1.3,6.1-2,9.9-2    c2.3,0,4.4,0.1,6.3,0.6c1.9,0.4,3.6,1,5.1,1.6l-0.4,7.7c-1.4-0.9-3-1.6-4.7-2.1c-1.7-0.6-3.6-0.9-5.7-0.9c-2.4,0-4.6,0.6-6.4,1.6    c-1.9,1-3.3,2.4-4.4,4.1s-2,3.7-2.6,5.9c-0.6,2.1-0.9,4.4-0.9,6.7c0,2.3,0.3,4.4,0.7,6.6c0.4,2.1,1.3,4.1,2.3,5.9    c1.1,1.7,2.4,3.1,4.1,4.1c1.7,1,3.9,1.6,6.3,1.6c1.7,0,3.3-0.3,4.6-1v-13.4h-6.7V370h15v25.7H170.9z"></path>
		<path class="st1" d="M183.4,397.6v-48.9h25.4v7h-16.4v13.2h15.4v7h-15.4v14.7h17.3v7L183.4,397.6L183.4,397.6z"></path>
		<path class="st1" d="M243.9,397.6l-15-38.5v38.5h-7.7v-48.9h11.7l14.9,38.6v-38.6h7.9v48.9H243.9z"></path>
		<path class="st1" d="M302.4,355.6V369h14.9v7h-14.9v21.4h-9v-48.9H318v7L302.4,355.6L302.4,355.6z"></path>
		<path class="st1" d="M352,397.6l-4.7-15.3c-0.6-1.9-1.3-3.3-2-4.1c-0.7-0.9-1.9-1.3-3.4-1.3h-3.7v20.7h-8.9v-48.9h15.6    c2,0,3.9,0.3,5.6,0.9c1.7,0.6,3.3,1.3,4.6,2.4s2.3,2.4,3.1,4c0.7,1.6,1.1,3.4,1.1,5.4c0,3.1-0.9,5.9-2.4,7.9c-1.7,2.1-4,3.4-7.1,4    c1.6,0.4,2.9,1.1,3.7,2c0.9,1,1.6,2.4,2.3,4.4l6.1,17.9L352,397.6L352,397.6z M350,362.4c0-2.4-0.7-4.3-2.1-5.3    c-1.4-1.1-3.3-1.7-5.6-1.7h-4.1v14.4h4.3c2.4,0,4.4-0.7,5.7-2C349.4,366.6,350,364.9,350,362.4z"></path>
		<path class="st1" d="M373.3,397.6v-48.9h25.4v7h-16.4v13.2h15.4v7h-15.4v14.7h17.3v7L373.3,397.6L373.3,397.6z"></path>
		<path class="st1" d="M449.6,397.6v-41l-11.3,41h-6.7l-11.3-41v41h-7.7v-48.9h13.2l9.6,36.6l9.9-36.6h13.2v48.9H449.6z"></path>
		<path class="st1" d="M508.8,373.2c0,3.6-0.4,6.7-1.4,9.7c-1,3-2.4,5.6-4.3,7.7c-1.9,2.1-4.3,3.9-7,5.1c-2.9,1.3-6,1.9-9.7,1.9    h-12.6v-48.9h11.7c3.9,0,7.3,0.6,10.3,1.7c2.9,1.1,5.3,2.9,7.3,4.9c2,2.1,3.4,4.7,4.3,7.7C508.4,366,508.8,369.3,508.8,373.2z     M499.5,373.2c0-2.4-0.3-4.7-0.7-6.7c-0.4-2.1-1.1-4-2.3-5.6c-1.1-1.6-2.4-2.9-4.3-3.7c-1.7-0.9-4-1.4-6.6-1.4h-2.9v34.9h3.4    c2.4,0,4.6-0.4,6.3-1.4c1.7-1,3.1-2.3,4.1-3.9c1-1.6,1.7-3.4,2.1-5.6C499.4,377.6,499.5,375.4,499.5,373.2z"></path>
		<path class="st1" d="M520.8,397.6v-48.9h25.4v7h-16.4v13.2h15.4v7h-15.4v14.7H547v7L520.8,397.6L520.8,397.6z"></path>
		<path class="st1" d="M581.3,397.6l-15-38.5v38.5h-7.7v-48.9h11.7l14.9,38.6v-38.6h7.9v48.9H581.3z"></path>
		<path class="st1" d="M604.6,378.3v-7h16.2v7H604.6z"></path>
		<path class="st1" d="M62.4,429v13.4h14.9v7H62.4v21.4h-9V422h24.6v7L62.4,429L62.4,429z"></path>
		<path class="st1" d="M89.2,470.9V422h25.4v7H98.1v13.2h15.4v7H98.1v14.7h17.2v7L89.2,470.9L89.2,470.9z"></path>
		<path class="st1" d="M128.4,470.9V422h9v48.9H128.4z"></path>
		<path class="st1" d="M175.7,470.9l-15-38.5v38.5H153V422h11.7l14.9,38.6V422h7.9v48.9H175.7z"></path>
		<path class="st1" d="M237.9,446.5c0,3.6-0.4,6.7-1.4,9.7c-1,3-2.4,5.6-4.3,7.7c-1.9,2.1-4.3,3.9-7,5.1c-2.9,1.3-6,1.9-9.7,1.9    h-12.6V422h11.7c3.9,0,7.3,0.6,10.3,1.7c2.9,1.1,5.3,2.9,7.3,4.9c2,2.1,3.4,4.7,4.3,7.7C237.3,439.3,237.9,442.8,237.9,446.5z     M228.6,446.5c0-2.4-0.3-4.7-0.7-6.7c-0.4-2.1-1.1-4-2.3-5.6s-2.4-2.9-4.3-3.7c-1.7-0.9-4-1.4-6.6-1.4h-2.9v34.9h3.4    c2.4,0,4.6-0.4,6.3-1.4c1.7-1,3.1-2.3,4.1-3.9c1-1.6,1.7-3.4,2.1-5.6C228.3,450.9,228.6,448.8,228.6,446.5z"></path>
		<path class="st1" d="M249.9,470.9V422h9v41.7h15.4v7.3h-24.4V470.9z"></path>
		<path class="st1" d="M284.2,470.9V422h9v48.9H284.2z"></path>
		<path class="st1" d="M335.5,470.1c-1.3,0.4-2.7,0.7-4.3,1.1c-1.6,0.3-3.7,0.6-6.1,0.6c-3.4,0-6.4-0.6-9.1-1.9    c-2.7-1.3-4.9-3-6.7-5.3c-1.9-2.3-3.1-5-4.1-8c-1-3-1.4-6.4-1.4-10c0-3.9,0.6-7.4,1.7-10.6s2.7-5.7,4.6-8c2-2.1,4.1-3.9,6.7-5    s5.3-1.7,8.1-1.7c2.6,0,4.9,0.3,6.6,0.7c1.7,0.6,3,1,4,1.3l-0.4,7.7c-1-0.7-2.1-1.3-3.6-1.9s-3.1-0.9-5-0.9    c-2.1,0-4.1,0.4-5.9,1.4c-1.7,1-3,2.3-4.1,3.9c-1.1,1.7-2,3.6-2.6,5.7s-0.9,4.6-0.9,7s0.3,4.7,0.9,7c0.6,2.1,1.4,4,2.6,5.7    c1.1,1.6,2.6,2.9,4.1,3.9c1.7,1,3.6,1.4,5.7,1.4c2.3,0,4.1-0.3,5.6-0.9s2.4-1.1,3.3-1.4L335.5,470.1z"></path>
		<path class="st1" d="M369.4,470.9v-21.6h-13.9v21.6h-9V422h9v20h13.9v-20h9v48.9H369.4z"></path>
		<path class="st1" d="M416,470.9l-14.4-23.2v23.2h-9V422h9v21.2l13.6-21.2h10.3l-16.2,23l17.6,26H416V470.9z"></path>
		<path class="st1" d="M437.2,470.9V422h25.4v7h-16.4v13.2h15.4v7h-15.4v14.7h17.3v7L437.2,470.9L437.2,470.9z"></path>
		<path class="st1" d="M476.4,470.9V422h9v48.9H476.4z"></path>
		<path class="st1" d="M516,429.2v41.7h-9v-41.7h-10.6v-7.3h30.2v7.3H516z"></path>
	</g>
</g>
</svg>
